# xmcd CD database file
#
# Track frame offsets:
#	150
#	11485
#	23435
#	37857
#	56647
#	73680
#	86967
#	97662
#	109835
#	127865
#	144832
#	159735
#	178940
#	193342
#	212725
#
# Disc length: 3069 seconds
#
# Revision: 0
# Processed by: cddbd v1.5.1PL2 Copyright (c) Steve Scherf et al.
# Submitted via: CD2WAV32(JP) R3.22
#
DISCID=c50bfb0f
DTITLE=the (international) noise conspiracy - Survival Sickness
DYEAR=2002
DGENRE=Rock
TTITLE0=I WANNA KNOW ABOUT U
TTITLE1=THE SUBVERSIVE SOUND
TTITLE2=SMASH IT UP
TTITLE3=(I'VE GOT)SURVIVAL SICKNESS
TTITLE4=THE REPRODUCTION OF DEATH
TTITLE5=IMPOSTOR COSTUME
TTITLE6=interrude
TTITLE7=ONLY LOVERS LEFT ALIVE
TTITLE8=DO I HAVE TO SPELL IT OUT ？
TTITLE9=WILL IT EVER BE QUIET ？
TTITLE10=ENSLAVEMENT BLUES
TTITLE11=READY STEADY GO !
TTITLE12=INNER CITY REJECTS
TTITLE13=SLEEPING PILLS
TTITLE14=SMASH IT UP (VIDEO)
EXTD=
EXTT0=
EXTT1=
EXTT2=
EXTT3=
EXTT4=
EXTT5=
EXTT6=
EXTT7=
EXTT8=
EXTT9=
EXTT10=
EXTT11=
EXTT12=
EXTT13=
EXTT14=
PLAYORDER=
